<?xml version="1.0" encoding="utf-8"?>
<!-- Generator: Adobe Illustrator 19.0.0, SVG Export Plug-In . SVG Version: 6.00 Build 0)  -->
<svg version="1.1" id="Layer_1" xmlns="http://www.w3.org/2000/svg" xmlns:xlink="http://www.w3.org/1999/xlink" x="0px" y="0px"
	 viewBox="-167 241 24 24" style="enable-background:new -167 241 24 24;" xml:space="preserve">
<style type="text/css">
	.st0{fill:none;}
	.st1{fill:#FFFFFF;}
</style>
<path class="st0" d="M-334,482h24v24h-24V482z"/>
<g>
	<path d="M-155,244.4c-4.8,0-8.6,3.8-8.6,8.6c0,4.8,3.8,8.6,8.6,8.6s8.6-3.9,8.6-8.6C-146.4,248.2-150.2,244.4-155,244.4z"/>
	<path class="st1" d="M-154.1,253c1,0,1.8-0.8,1.8-1.8c0-1-0.8-1.8-1.8-1.8c-1,0-1.8,0.8-1.8,1.8C-155.9,252.2-155.1,253-154.1,253z
		 M-158.1,252.1v-1.4h-0.9v1.4h-1.4v0.9h1.4v1.4h0.9V253h1.4v-0.9H-158.1z M-154.1,253.9c-1.2,0-3.5,0.6-3.5,1.7v0.9h7.1v-0.9
		C-150.6,254.5-152.9,253.9-154.1,253.9z"/>
</g>
</svg>
