<?xml version="1.0" encoding="utf-8"?>
<!-- Generator: Adobe Illustrator 19.0.0, SVG Export Plug-In . SVG Version: 6.00 Build 0)  -->
<svg version="1.1" id="Layer_1" xmlns="http://www.w3.org/2000/svg" xmlns:xlink="http://www.w3.org/1999/xlink" x="0px" y="0px"
	 viewBox="-155 229 48 48" style="enable-background:new -155 229 48 48;" xml:space="preserve">
<style type="text/css">
	.st0{fill:none;}
	.st1{fill:#FFFFFF;}
</style>
<path class="st0" d="M-429,651h48v48h-48V651z"/>
<g>
	<path d="M-130.3,235.7c-9.6,0-17.3,7.7-17.3,17.3c0,9.6,7.7,17.3,17.3,17.3s17.3-7.7,17.3-17.3C-113,243.4-120.7,235.7-130.3,235.7
		z"/>
	<path class="st1" d="M-128.6,253c2,0,3.5-1.6,3.5-3.5s-1.6-3.5-3.5-3.5s-3.5,1.6-3.5,3.5C-132,251.4-130.5,253-128.6,253z
		 M-136.4,251.3v-2.7h-1.7v2.7h-2.7v1.7h2.7v2.7h1.7V253h2.7v-1.7H-136.4z M-128.6,254.7c-2.3,0-7.1,1.2-7.1,3.5v1.7h14.1v-1.7
		C-121.5,255.9-126.2,254.7-128.6,254.7z"/>
</g>
</svg>
