<?xml version="1.0" encoding="utf-8"?>
<!-- Generator: Adobe Illustrator 19.0.0, SVG Export Plug-In . SVG Version: 6.00 Build 0)  -->
<svg version="1.1" id="Layer_1" xmlns="http://www.w3.org/2000/svg" xmlns:xlink="http://www.w3.org/1999/xlink" x="0px" y="0px"
	 viewBox="-155 229 48 48" style="enable-background:new -155 229 48 48;" xml:space="preserve">
<style type="text/css">
	.st0{fill:none;}
</style>
<path class="st0" d="M-310,458h48v48h-48V458z"/>
<g>
	<path d="M-140.7,250.6h19.4v2.2h-19.4V250.6z M-140.7,245.3h19.4v2.2h-19.4V245.3z M-140.7,255.8h12.9v2.2h-12.9V255.8z
		 M-115.1,261.9L-115.1,261.9L-115.1,261.9c3.2-2.9,5-6.7,5-10.8c0-3.4-1.3-6.6-3.5-9.2c-3.8-4.4-10.1-7.3-17.4-7.3
		c-11.6,0-20.9,7.4-20.9,16.5c0,8.9,8.9,16.1,20,16.5l-0.4,5.9l12.5-7.9C-118,264.4-116.5,263.2-115.1,261.9"/>
</g>
</svg>
