<?xml version="1.0" encoding="utf-8"?>
<!-- Generator: Adobe Illustrator 19.0.0, SVG Export Plug-In . SVG Version: 6.00 Build 0)  -->
<svg version="1.1" id="Layer_1" xmlns="http://www.w3.org/2000/svg" xmlns:xlink="http://www.w3.org/1999/xlink" x="0px" y="0px"
	 viewBox="-167 241 24 24" style="enable-background:new -167 241 24 24;" xml:space="preserve">
<style type="text/css">
	.st0{fill:none;}
</style>
<path class="st0" d="M-167,241h24v24h-24V241z"/>
<g>
	<path d="M-159.7,251.5h9.3v1.1h-9.3V251.5z M-159.7,249h9.3v1.1h-9.3V249z M-159.7,254h6.2v1.1h-6.2V254z M-147.4,256.9
		L-147.4,256.9L-147.4,256.9c1.5-1.4,2.4-3.2,2.4-5.2c0-1.6-0.6-3.2-1.7-4.4c-1.8-2.1-4.8-3.5-8.4-3.5c-5.6,0-10,3.6-10,7.9
		c0,4.3,4.3,7.7,9.6,7.9l-0.2,2.8l6-3.8C-148.8,258.1-148,257.6-147.4,256.9"/>
</g>
</svg>
