<?xml version="1.0" encoding="utf-8"?>
<!-- Generator: Adobe Illustrator 19.0.0, SVG Export Plug-In . SVG Version: 6.00 Build 0)  -->
<svg version="1.1" id="Layer_1" xmlns="http://www.w3.org/2000/svg" xmlns:xlink="http://www.w3.org/1999/xlink" x="0px" y="0px"
	 viewBox="-167 241 24 24" style="enable-background:new -167 241 24 24;" xml:space="preserve">
<style type="text/css">
	.st0{fill:none;}
</style>
<path class="st0" d="M-167,241h24v24h-24V241z"/>
<g>
	<path class="st0" d="M-166.7,241.1h23.5v23.5h-23.5V241.1z"/>
</g>
<g>
	<path d="M-155,262.2c-5.3,0-9.6-4.3-9.6-9.6s4.3-9.6,9.6-9.6s9.6,4.3,9.6,9.6S-149.7,262.2-155,262.2z M-155,243.5
		c-5,0-9.1,4.1-9.1,9.1c0,5,4.1,9.1,9.1,9.1c5,0,9.1-4.1,9.1-9.1C-145.9,247.6-150,243.5-155,243.5z"/>
</g>
<polygon points="-156.9,258.2 -161.5,253.5 -160.2,252.2 -156.9,255.5 -149.8,248.4 -148.5,249.8 "/>
</svg>
