<?xml version="1.0" encoding="utf-8"?>
<!-- Generator: Adobe Illustrator 19.0.0, SVG Export Plug-In . SVG Version: 6.00 Build 0)  -->
<svg version="1.1" id="Layer_1" xmlns="http://www.w3.org/2000/svg" xmlns:xlink="http://www.w3.org/1999/xlink" x="0px" y="0px"
	 viewBox="-155 229 48 48" style="enable-background:new -155 229 48 48;" xml:space="preserve">
<style type="text/css">
	.st0{fill:none;}
	.st1{fill:#FFFFFF;}
</style>
<path class="st0" d="M-310,458h48v48h-48V458z"/>
<g id="XMLID_1049_">
	<path id="XMLID_1030_" d="M-131,235.7c-9.6,0-17.3,7.7-17.3,17.3c0,9.5,7.7,17.3,17.3,17.3s17.3-7.8,17.3-17.3
		C-113.7,243.4-121.5,235.7-131,235.7z"/>
	<g id="XMLID_1032_">
		<circle id="XMLID_1036_" class="st1" cx="-131" cy="253.7" r="2.3"/>
		<path id="XMLID_1033_" class="st1" d="M-133.2,246.4l-1.3,1.5h-2.3c-0.8,0-1.5,0.7-1.5,1.5v8.7c0,0.8,0.7,1.5,1.5,1.5h11.6
			c0.8,0,1.5-0.7,1.5-1.5v-8.7c0-0.8-0.7-1.5-1.5-1.5h-2.3l-1.3-1.5H-133.2z M-131,257.3c-2,0-3.6-1.6-3.6-3.6c0-2,1.6-3.6,3.6-3.6
			s3.6,1.6,3.6,3.6C-127.4,255.8-129,257.3-131,257.3z"/>
	</g>
</g>
</svg>
