<?xml version="1.0" encoding="utf-8"?>
<!-- Generator: Adobe Illustrator 19.0.0, SVG Export Plug-In . SVG Version: 6.00 Build 0)  -->
<svg version="1.1" id="Layer_1" xmlns="http://www.w3.org/2000/svg" xmlns:xlink="http://www.w3.org/1999/xlink" x="0px" y="0px"
	 viewBox="-167 241 24 24" style="enable-background:new -167 241 24 24;" xml:space="preserve">
<style type="text/css">
	.st0{fill:#FFFFFF;}
</style>
<g id="XMLID_1049_">
	<path id="XMLID_1030_" d="M-155,244.7c-4.8,0-8.6,3.8-8.6,8.6c0,4.8,3.8,8.6,8.6,8.6c4.8,0,8.6-3.9,8.6-8.6
		C-146.4,248.6-150.3,244.7-155,244.7z"/>
	<g id="XMLID_1032_">
		<circle id="XMLID_1036_" class="st0" cx="-155" cy="253.7" r="1.2"/>
		<path id="XMLID_1033_" class="st0" d="M-156.2,250.1l-0.6,0.7h-1.2c-0.4,0-0.7,0.3-0.7,0.7v4.4c0,0.4,0.3,0.7,0.7,0.7h5.8
			c0.4,0,0.7-0.3,0.7-0.7v-4.4c0-0.4-0.3-0.7-0.7-0.7h-1.2l-0.6-0.7H-156.2z M-155,255.5c-1,0-1.8-0.8-1.8-1.8c0-1,0.8-1.8,1.8-1.8
			c1,0,1.8,0.8,1.8,1.8C-153.2,254.7-154,255.5-155,255.5z"/>
	</g>
</g>
</svg>
