<?xml version="1.0" encoding="utf-8"?>
<!-- Generator: Adobe Illustrator 19.0.0, SVG Export Plug-In . SVG Version: 6.00 Build 0)  -->
<svg version="1.1" id="Layer_1" xmlns="http://www.w3.org/2000/svg" xmlns:xlink="http://www.w3.org/1999/xlink" x="0px" y="0px"
	 viewBox="-167 241 24 24" style="enable-background:new -167 241 24 24;" xml:space="preserve">
<style type="text/css">
	.st0{fill:none;}
	.st1{fill:#FFFFFF;}
</style>
<path class="st0" d="M-167,241h24v24h-24V241z"/>
<g>
	<path class="st0" d="M-166.7,241.1h23.5v23.5h-23.5V241.1z"/>
</g>
<g id="XMLID_1051_">
	<path id="XMLID_1046_" d="M-155,243.8c-5.1,0-9.2,4.1-9.2,9.2c0,5.1,4.1,9.2,9.2,9.2s9.2-4.1,9.2-9.2
		C-145.8,247.9-149.9,243.8-155,243.8z"/>
	<path id="XMLID_1045_" class="st1" d="M-157,255.5c-1.4,0-2.5-1.1-2.5-2.5s1.1-2.5,2.5-2.5h4.7c1,0,1.8,0.8,1.8,1.8
		c0,1-0.8,1.8-1.8,1.8h-3.9c-0.6,0-1.2-0.5-1.2-1.2s0.5-1.2,1.2-1.2h3.4v0.7h-3.4c-0.2,0-0.5,0.2-0.5,0.5s0.2,0.5,0.5,0.5h3.9
		c0.6,0,1.2-0.5,1.2-1.2s-0.5-1.2-1.2-1.2h-4.7c-1,0-1.8,0.8-1.8,1.8c0,1,0.8,1.8,1.8,1.8h4.3v0.7L-157,255.5L-157,255.5z"/>
</g>
</svg>
