<?xml version="1.0" encoding="utf-8"?>
<!-- Generator: Adobe Illustrator 19.0.0, SVG Export Plug-In . SVG Version: 6.00 Build 0)  -->
<svg version="1.1" id="Layer_1" xmlns="http://www.w3.org/2000/svg" xmlns:xlink="http://www.w3.org/1999/xlink" x="0px" y="0px"
	 viewBox="-155 229 48 48" style="enable-background:new -155 229 48 48;" xml:space="preserve">
<style type="text/css">
	.st0{fill:none;}
	.st1{fill:#FFFFFF;}
</style>
<path class="st0" d="M-310,458h48v48h-48V458z"/>
<g id="XMLID_1051_">
	<path id="XMLID_1046_" d="M-131,233c-11.1,0-20,8.9-20,20c0,11.1,8.9,20,20,20s20-8.9,20-20S-119.9,233-131,233z"/>
	<path id="XMLID_1045_" class="st1" d="M-135.4,258.5c-3,0-5.4-2.4-5.4-5.4s2.4-5.4,5.4-5.4h10.3c2.2,0,3.9,1.8,3.9,3.9
		c0,2.2-1.8,3.9-3.9,3.9h-8.4c-1.4,0-2.5-1.1-2.5-2.5s1.1-2.5,2.5-2.5h7.4v1.5h-7.4c-0.5,0-1,0.4-1,1s0.4,1,1,1h8.4
		c1.4,0,2.5-1.1,2.5-2.5s-1.1-2.5-2.5-2.5h-10.3c-2.2,0-3.9,1.8-3.9,3.9c0,2.2,1.8,3.9,3.9,3.9h9.4v1.5h-9.4V258.5z"/>
</g>
</svg>
