<?xml version="1.0" encoding="utf-8"?>
<!-- Generator: Adobe Illustrator 19.0.0, SVG Export Plug-In . SVG Version: 6.00 Build 0)  -->
<svg version="1.1" id="Layer_1" xmlns="http://www.w3.org/2000/svg" xmlns:xlink="http://www.w3.org/1999/xlink" x="0px" y="0px"
	 viewBox="-170 244 18 18" style="enable-background:new -170 244 18 18;" xml:space="preserve">
<style type="text/css">
	.st0{fill:#FFFFFF;}
	.st1{fill:none;}
</style>
<g id="XMLID_1102_">
	<g id="XMLID_832_">
		<path id="XMLID_827_" class="st0" d="M-159.3,249.5c-0.3-0.6-1-1.1-1.7-1.1c-1.1,0-1.9,0.9-1.9,1.9s0.9,1.9,1.9,1.9
			c0.7,0,1.3-0.4,1.7-0.9c0.2-0.3,0.3-0.6,0.3-1C-159.1,250.1-159.2,249.8-159.3,249.5z"/>
		<path id="XMLID_1110_" class="st0" d="M-158.9,251.4c0.2,0.2,0.6,0.4,0.9,0.4c0.7,0,1.3-0.6,1.3-1.3c0-0.7-0.6-1.3-1.3-1.3
			c-0.3,0-0.6,0.1-0.8,0.3c0.1,0.3,0.2,0.6,0.2,0.9C-158.6,250.8-158.7,251.1-158.9,251.4z"/>
		<path id="XMLID_1111_" class="st0" d="M-158,252.2c-0.7,0-2.1,0.4-2.5,1c1.1,0,3,0.5,3.6,1.4c0.6-0.2,1.1-0.6,1.4-1.1
			C-155.4,252.6-157.1,252.2-158,252.2z"/>
		<path id="XMLID_822_" class="st0" d="M-157.3,255c-0.6-0.9-2.5-1.4-3.6-1.4c0,0-0.1,0-0.1,0c-1.3,0-3.9,0.7-3.9,2
			c0.8,1.3,2.3,2.1,3.9,2.1s3-0.8,3.9-2.1C-157.1,255.4-157.2,255.2-157.3,255z"/>
		<path id="XMLID_828_" class="st0" d="M-163.1,251.4c-0.2,0.2-0.6,0.4-0.9,0.4c-0.7,0-1.3-0.6-1.3-1.3c0-0.7,0.6-1.3,1.3-1.3
			c0.3,0,0.6,0.1,0.8,0.3c-0.1,0.3-0.2,0.6-0.2,0.9C-163.4,250.8-163.3,251.1-163.1,251.4z"/>
		<path id="XMLID_821_" class="st0" d="M-164,252.2c0.7,0,2.1,0.4,2.5,1c-1.1,0-3,0.5-3.6,1.4c-0.6-0.2-1.1-0.6-1.4-1.1
			C-166.6,252.6-164.9,252.2-164,252.2z"/>
	</g>
	<path id="XMLID_1103_" class="st1" d="M-161,252.4c1.1,0,1.9-0.9,1.9-1.9s-0.9-1.9-1.9-1.9s-1.9,0.9-1.9,1.9
		S-162.1,252.4-161,252.4z"/>
	<path id="XMLID_1104_" class="st1" d="M-161,253.6c-1.3,0-3.9,0.7-3.9,2c0.8,1.3,2.3,2.1,3.9,2.1s3-0.8,3.9-2.1
		C-157.1,254.3-159.7,253.6-161,253.6z"/>
	<path id="XMLID_1115_" d="M-161,246.5c-3.6,0-6.5,2.9-6.5,6.5s2.9,6.5,6.5,6.5c3.6,0,6.5-2.9,6.5-6.5S-157.4,246.5-161,246.5z"/>
	<g id="XMLID_833_">
		<path id="XMLID_1118_" class="st0" d="M-159.3,249.8c-0.3-0.6-1-1.1-1.7-1.1c-1.1,0-1.9,0.9-1.9,1.9s0.9,1.9,1.9,1.9
			c0.7,0,1.3-0.4,1.7-0.9c0.2-0.3,0.3-0.6,0.3-1C-159.1,250.4-159.2,250.1-159.3,249.8z"/>
		<path id="XMLID_1113_" class="st0" d="M-158.9,251.7c0.2,0.2,0.6,0.4,0.9,0.4c0.7,0,1.3-0.6,1.3-1.3c0-0.7-0.6-1.3-1.3-1.3
			c-0.3,0-0.6,0.1-0.8,0.3c0.1,0.3,0.2,0.6,0.2,0.9C-158.6,251.1-158.7,251.4-158.9,251.7z"/>
		<path id="XMLID_1108_" class="st0" d="M-158,252.5c-0.7,0-2.1,0.4-2.5,1c1.1,0,3,0.5,3.6,1.4c0.6-0.2,1.1-0.6,1.4-1.1
			C-155.4,252.9-157.1,252.5-158,252.5z"/>
		<path id="XMLID_1105_" class="st0" d="M-157.3,255.3c-0.6-0.9-2.5-1.4-3.6-1.4c0,0-0.1,0-0.1,0c-1.3,0-3.9,0.7-3.9,2
			c0.8,1.3,2.3,2.1,3.9,2.1s3-0.8,3.9-2.1C-157.1,255.7-157.2,255.5-157.3,255.3z"/>
		<path id="XMLID_1093_" class="st0" d="M-163.1,251.7c-0.2,0.2-0.6,0.4-0.9,0.4c-0.7,0-1.3-0.6-1.3-1.3c0-0.7,0.6-1.3,1.3-1.3
			c0.3,0,0.6,0.1,0.8,0.3c-0.1,0.3-0.2,0.6-0.2,0.9C-163.4,251.1-163.3,251.4-163.1,251.7z"/>
		<path id="XMLID_1092_" class="st0" d="M-164,252.5c0.7,0,2.1,0.4,2.5,1c-1.1,0-3,0.5-3.6,1.4c-0.6-0.2-1.1-0.6-1.4-1.1
			C-166.6,252.9-164.9,252.5-164,252.5z"/>
	</g>
</g>
</svg>
