<?xml version="1.0" encoding="utf-8"?>
<!-- Generator: Adobe Illustrator 19.0.0, SVG Export Plug-In . SVG Version: 6.00 Build 0)  -->
<svg version="1.1" id="Layer_1" xmlns="http://www.w3.org/2000/svg" xmlns:xlink="http://www.w3.org/1999/xlink" x="0px" y="0px"
	 viewBox="-155 229 48 48" style="enable-background:new -155 229 48 48;" xml:space="preserve">
<style type="text/css">
	.st0{fill:none;}
	.st1{fill:#FFFFFF;}
</style>
<path class="st0" d="M-310,458h48v48h-48V458z"/>
<g id="XMLID_1102_">
	<g id="XMLID_832_">
		<path id="XMLID_827_" class="st1" d="M-125.7,242.3c-1-1.9-3-3.3-5.3-3.3c-3.3,0-6,2.7-6,6s2.7,6,6,6c2.2,0,4.1-1.2,5.1-2.9
			c0.5-0.9,0.9-2,0.9-3.1C-125,244-125.3,243.1-125.7,242.3z"/>
		<path id="XMLID_1110_" class="st1" d="M-124.5,248.1c0.7,0.7,1.7,1.1,2.7,1.1c2.2,0,3.9-1.8,3.9-3.9c0-2.2-1.8-3.9-3.9-3.9
			c-1,0-1.8,0.4-2.5,0.9c0.4,0.8,0.7,1.7,0.7,2.7C-123.6,246.1-123.9,247.2-124.5,248.1z"/>
		<path id="XMLID_1111_" class="st1" d="M-121.6,250.4c-2.3,0-6.6,1.1-7.6,3.1c3.4,0.1,9.4,1.6,11.2,4.4c1.8-0.7,3.3-2,4.3-3.5
			C-113.8,251.8-119,250.4-121.6,250.4z"/>
		<path id="XMLID_822_" class="st1" d="M-119.6,259.2c-1.8-2.8-7.8-4.4-11.2-4.4c-0.1,0-0.2,0-0.2,0c-4,0-12,2.2-12,6.2
			c2.6,3.9,7,6.4,12,6.4s9.4-2.6,12-6.4C-119,260.3-119.2,259.8-119.6,259.2z"/>
		<path id="XMLID_828_" class="st1" d="M-137.5,248.1c-0.7,0.7-1.7,1.1-2.7,1.1c-2.2,0-3.9-1.8-3.9-3.9c0-2.2,1.8-3.9,3.9-3.9
			c1,0,1.8,0.4,2.5,0.9c-0.4,0.8-0.7,1.7-0.7,2.7C-138.4,246.1-138.1,247.2-137.5,248.1z"/>
		<path id="XMLID_821_" class="st1" d="M-140.4,250.4c2.3,0,6.6,1.1,7.6,3.1c-3.4,0.1-9.4,1.6-11.2,4.4c-1.8-0.7-3.3-2-4.3-3.5
			C-148.2,251.8-143,250.4-140.4,250.4z"/>
	</g>
	<path id="XMLID_1103_" class="st0" d="M-131,251c3.3,0,6-2.7,6-6s-2.7-6-6-6s-6,2.7-6,6S-134.3,251-131,251z"/>
	<path id="XMLID_1104_" class="st0" d="M-131,254.8c-4,0-12,2.2-12,6.2c2.6,3.9,7,6.4,12,6.4s9.4-2.6,12-6.4
		C-119.1,257-127,254.8-131,254.8z"/>
	<path id="XMLID_1115_" d="M-131,233c-11.1,0-20,9-20,20s8.9,20,20,20c11,0,20-9,20-20S-120,233-131,233z"/>
	<g id="XMLID_833_">
		<path id="XMLID_1118_" class="st1" d="M-125.7,243.2c-1-1.9-3-3.3-5.3-3.3c-3.3,0-6,2.7-6,6s2.7,6,6,6c2.2,0,4.1-1.2,5.1-2.9
			c0.5-0.9,0.9-2,0.9-3.1C-125,245-125.3,244.1-125.7,243.2z"/>
		<path id="XMLID_1113_" class="st1" d="M-124.5,249.1c0.7,0.7,1.7,1.1,2.7,1.1c2.2,0,3.9-1.8,3.9-3.9c0-2.2-1.8-3.9-3.9-3.9
			c-1,0-1.8,0.4-2.5,0.9c0.4,0.8,0.7,1.7,0.7,2.7C-123.6,247.1-123.9,248.2-124.5,249.1z"/>
		<path id="XMLID_1108_" class="st1" d="M-121.6,251.4c-2.3,0-6.6,1.1-7.6,3.1c3.4,0.1,9.4,1.6,11.2,4.4c1.8-0.7,3.3-2,4.3-3.5
			C-113.8,252.8-119,251.4-121.6,251.4z"/>
		<path id="XMLID_1105_" class="st1" d="M-119.6,260.2c-1.8-2.8-7.8-4.4-11.2-4.4c-0.1,0-0.2,0-0.2,0c-4,0-12,2.2-12,6.2
			c2.6,3.9,7,6.4,12,6.4s9.4-2.6,12-6.4C-119,261.3-119.2,260.8-119.6,260.2z"/>
		<path id="XMLID_1093_" class="st1" d="M-137.5,249.1c-0.7,0.7-1.7,1.1-2.7,1.1c-2.2,0-3.9-1.8-3.9-3.9c0-2.2,1.8-3.9,3.9-3.9
			c1,0,1.8,0.4,2.5,0.9c-0.4,0.8-0.7,1.7-0.7,2.7C-138.4,247.1-138.1,248.2-137.5,249.1z"/>
		<path id="XMLID_1092_" class="st1" d="M-140.4,251.4c2.3,0,6.6,1.1,7.6,3.1c-3.4,0.1-9.4,1.6-11.2,4.4c-1.8-0.7-3.3-2-4.3-3.5
			C-148.2,252.8-143,251.4-140.4,251.4z"/>
	</g>
</g>
</svg>
