<?xml version="1.0" encoding="utf-8"?>
<!-- Generator: Adobe Illustrator 19.0.0, SVG Export Plug-In . SVG Version: 6.00 Build 0)  -->
<svg version="1.1" id="Layer_1" xmlns="http://www.w3.org/2000/svg" xmlns:xlink="http://www.w3.org/1999/xlink" x="0px" y="0px"
	 viewBox="-167 241 24 24" style="enable-background:new -167 241 24 24;" xml:space="preserve">
<style type="text/css">
	.st0{fill:none;}
	.st1{fill:#FFFFFF;}
</style>
<path class="st0" d="M-167,241h24v24h-24V241z"/>
<g id="XMLID_1102_">
	<g id="XMLID_832_">
		<path id="XMLID_827_" class="st1" d="M-152.7,248.9c-0.4-0.8-1.3-1.4-2.3-1.4c-1.4,0-2.6,1.2-2.6,2.6c0,1.4,1.2,2.6,2.6,2.6
			c1,0,1.8-0.5,2.2-1.3c0.2-0.4,0.4-0.9,0.4-1.3C-152.4,249.6-152.5,249.2-152.7,248.9z"/>
		<path id="XMLID_1110_" class="st1" d="M-152.2,251.4c0.3,0.3,0.7,0.5,1.2,0.5c1,0,1.7-0.8,1.7-1.7c0-1-0.8-1.7-1.7-1.7
			c-0.4,0-0.8,0.2-1.1,0.4c0.2,0.3,0.3,0.7,0.3,1.2C-151.8,250.5-151.9,251-152.2,251.4z"/>
		<path id="XMLID_1111_" class="st1" d="M-150.9,252.4c-1,0-2.9,0.5-3.3,1.3c1.5,0,4.1,0.7,4.8,1.9c0.8-0.3,1.4-0.9,1.9-1.5
			C-147.6,253-149.8,252.4-150.9,252.4z"/>
		<path id="XMLID_822_" class="st1" d="M-150.1,256.2c-0.8-1.2-3.4-1.9-4.8-1.9c0,0-0.1,0-0.1,0c-1.7,0-5.2,1-5.2,2.7
			c1.1,1.7,3,2.8,5.2,2.8s4.1-1.1,5.2-2.8C-149.8,256.7-149.9,256.4-150.1,256.2z"/>
		<path id="XMLID_828_" class="st1" d="M-157.8,251.4c-0.3,0.3-0.7,0.5-1.2,0.5c-1,0-1.7-0.8-1.7-1.7c0-1,0.8-1.7,1.7-1.7
			c0.4,0,0.8,0.2,1.1,0.4c-0.2,0.3-0.3,0.7-0.3,1.2C-158.2,250.5-158.1,251-157.8,251.4z"/>
		<path id="XMLID_821_" class="st1" d="M-159.1,252.4c1,0,2.9,0.5,3.3,1.3c-1.5,0-4.1,0.7-4.8,1.9c-0.8-0.3-1.4-0.9-1.9-1.5
			C-162.4,253-160.2,252.4-159.1,252.4z"/>
	</g>
	<path id="XMLID_1103_" class="st0" d="M-155,252.6c1.4,0,2.6-1.2,2.6-2.6c0-1.4-1.2-2.6-2.6-2.6s-2.6,1.2-2.6,2.6
		C-157.6,251.5-156.4,252.6-155,252.6z"/>
	<path id="XMLID_1104_" class="st0" d="M-155,254.3c-1.7,0-5.2,1-5.2,2.7c1.1,1.7,3,2.8,5.2,2.8s4.1-1.1,5.2-2.8
		C-149.9,255.2-153.3,254.3-155,254.3z"/>
	<path id="XMLID_1115_" d="M-155,244.9c-4.8,0-8.6,3.9-8.6,8.6c0,4.8,3.8,8.6,8.6,8.6c4.8,0,8.6-3.9,8.6-8.6
		C-146.4,248.7-150.2,244.9-155,244.9z"/>
	<g id="XMLID_833_">
		<path id="XMLID_1118_" class="st1" d="M-152.7,249.3c-0.4-0.8-1.3-1.4-2.3-1.4c-1.4,0-2.6,1.2-2.6,2.6s1.2,2.6,2.6,2.6
			c1,0,1.8-0.5,2.2-1.3c0.2-0.4,0.4-0.9,0.4-1.3C-152.4,250-152.5,249.7-152.7,249.3z"/>
		<path id="XMLID_1113_" class="st1" d="M-152.2,251.8c0.3,0.3,0.7,0.5,1.2,0.5c1,0,1.7-0.8,1.7-1.7c0-1-0.8-1.7-1.7-1.7
			c-0.4,0-0.8,0.2-1.1,0.4c0.2,0.3,0.3,0.7,0.3,1.2C-151.8,250.9-151.9,251.4-152.2,251.8z"/>
		<path id="XMLID_1108_" class="st1" d="M-150.9,252.8c-1,0-2.9,0.5-3.3,1.3c1.5,0,4.1,0.7,4.8,1.9c0.8-0.3,1.4-0.9,1.9-1.5
			C-147.6,253.4-149.8,252.8-150.9,252.8z"/>
		<path id="XMLID_1105_" class="st1" d="M-150.1,256.6c-0.8-1.2-3.4-1.9-4.8-1.9c0,0-0.1,0-0.1,0c-1.7,0-5.2,1-5.2,2.7
			c1.1,1.7,3,2.8,5.2,2.8s4.1-1.1,5.2-2.8C-149.8,257.1-149.9,256.9-150.1,256.6z"/>
		<path id="XMLID_1093_" class="st1" d="M-157.8,251.8c-0.3,0.3-0.7,0.5-1.2,0.5c-1,0-1.7-0.8-1.7-1.7c0-1,0.8-1.7,1.7-1.7
			c0.4,0,0.8,0.2,1.1,0.4c-0.2,0.3-0.3,0.7-0.3,1.2C-158.2,250.9-158.1,251.4-157.8,251.8z"/>
		<path id="XMLID_1092_" class="st1" d="M-159.1,252.8c1,0,2.9,0.5,3.3,1.3c-1.5,0-4.1,0.7-4.8,1.9c-0.8-0.3-1.4-0.9-1.9-1.5
			C-162.4,253.4-160.2,252.8-159.1,252.8z"/>
	</g>
</g>
</svg>
