<?xml version="1.0" encoding="utf-8"?>
<!-- Generator: Adobe Illustrator 19.0.0, SVG Export Plug-In . SVG Version: 6.00 Build 0)  -->
<svg version="1.1" id="Layer_1" xmlns="http://www.w3.org/2000/svg" xmlns:xlink="http://www.w3.org/1999/xlink" x="0px" y="0px"
	 viewBox="-155 229 48 48" style="enable-background:new -155 229 48 48;" xml:space="preserve">
<style type="text/css">
	.st0{fill:none;}
	.st1{fill:#FFFFFF;}
</style>
<path class="st0" d="M-310,458h48v48h-48V458z"/>
<g id="XMLID_516_">
	<path id="XMLID_921_" d="M-131,235.7c-9.6,0-17.3,7.7-17.3,17.3c0,9.5,7.7,17.3,17.3,17.3s17.3-7.8,17.3-17.3
		C-113.7,243.4-121.4,235.7-131,235.7z"/>
	<path id="XMLID_900_" class="st1" d="M-131,255.5c1.6,0,2.9-1.3,2.9-2.9v-5.9c0-1.6-1.3-2.9-2.9-2.9s-2.9,1.3-2.9,2.9v5.9
		C-133.9,254.1-132.6,255.5-131,255.5z M-125.8,252.5c0,2.9-2.5,5-5.2,5s-5.2-2.1-5.2-5h-1.6c0,3.4,2.7,6.1,5.9,6.7v3.2h2v-3.2
		c3.2-0.5,5.9-3.3,5.9-6.7L-125.8,252.5L-125.8,252.5z"/>
</g>
</svg>
