<?xml version="1.0" encoding="utf-8"?>
<!-- Generator: Adobe Illustrator 19.0.0, SVG Export Plug-In . SVG Version: 6.00 Build 0)  -->
<svg version="1.1" id="Layer_1" xmlns="http://www.w3.org/2000/svg" xmlns:xlink="http://www.w3.org/1999/xlink" x="0px" y="0px"
	 viewBox="-167 241 24 24" style="enable-background:new -167 241 24 24;" xml:space="preserve">
<style type="text/css">
	.st0{fill:none;}
	.st1{fill:#FFFFFF;}
</style>
<path class="st0" d="M-167,241h24v24h-24V241z"/>
<g id="XMLID_516_">
	<path id="XMLID_921_" d="M-155,244.4c-4.8,0-8.6,3.8-8.6,8.6c0,4.8,3.8,8.6,8.6,8.6s8.6-3.9,8.6-8.6
		C-146.4,248.2-150.2,244.4-155,244.4z"/>
	<path id="XMLID_900_" class="st1" d="M-155,254.3c0.8,0,1.5-0.6,1.5-1.5v-2.9c0-0.8-0.6-1.5-1.5-1.5s-1.5,0.6-1.5,1.5v2.9
		C-156.5,253.6-155.8,254.3-155,254.3z M-152.4,252.7c0,1.5-1.3,2.5-2.6,2.5s-2.6-1-2.6-2.5h-0.8c0,1.7,1.3,3.1,2.9,3.3v1.6h1v-1.6
		c1.6-0.3,2.9-1.6,2.9-3.3L-152.4,252.7L-152.4,252.7z"/>
</g>
</svg>
