<?xml version="1.0" encoding="utf-8"?>
<!-- Generator: Adobe Illustrator 19.0.0, SVG Export Plug-In . SVG Version: 6.00 Build 0)  -->
<svg version="1.1" id="Layer_1" xmlns="http://www.w3.org/2000/svg" xmlns:xlink="http://www.w3.org/1999/xlink" x="0px" y="0px"
	 viewBox="-155 229 48 48" style="enable-background:new -155 229 48 48;" xml:space="preserve">
<style type="text/css">
	.st0{fill:none;}
	.st1{fill:#FFFFFF;}
</style>
<path class="st0" d="M-310,458h48v48h-48V458z"/>
<g id="XMLID_1048_">
	<path id="XMLID_1023_" d="M-131,235.7c-9.6,0-17.3,7.7-17.3,17.3c0,9.5,7.7,17.3,17.3,17.3s17.3-7.8,17.3-17.3
		C-113.7,243.4-121.4,235.7-131,235.7z"/>
	<path id="XMLID_1025_" class="st1" d="M-123.7,255.9v-8.8c0-0.8-0.7-1.5-1.5-1.5h-8.8c-0.8,0-1.5,0.7-1.5,1.5v8.8
		c0,0.8,0.7,1.5,1.5,1.5h8.8C-124.3,257.4-123.7,256.7-123.7,255.9z M-131.7,253l1.5,2l2.2-2.7l2.9,3.6h-8.8L-131.7,253z
		 M-138.3,248.6v10.2c0,0.8,0.7,1.5,1.5,1.5h10.2v-1.5h-10.2v-10.2L-138.3,248.6L-138.3,248.6z"/>
</g>
</svg>
