<?xml version="1.0" encoding="utf-8"?>
<!-- Generator: Adobe Illustrator 19.0.0, SVG Export Plug-In . SVG Version: 6.00 Build 0)  -->
<svg version="1.1" id="Layer_1" xmlns="http://www.w3.org/2000/svg" xmlns:xlink="http://www.w3.org/1999/xlink" x="0px" y="0px"
	 viewBox="-167 241 24 24" style="enable-background:new -167 241 24 24;" xml:space="preserve">
<style type="text/css">
	.st0{fill:none;}
	.st1{fill:#FFFFFF;}
</style>
<path class="st0" d="M-167,241h24v24h-24V241z"/>
<g id="XMLID_1048_">
	<path id="XMLID_1023_" d="M-155,245c-4.8,0-8.6,3.8-8.6,8.6c0,4.8,3.8,8.6,8.6,8.6s8.6-3.9,8.6-8.6C-146.4,248.8-150.2,245-155,245
		z"/>
	<path id="XMLID_1025_" class="st1" d="M-151.3,255.1v-4.4c0-0.4-0.3-0.7-0.7-0.7h-4.4c-0.4,0-0.7,0.3-0.7,0.7v4.4
		c0,0.4,0.3,0.7,0.7,0.7h4.4C-151.7,255.8-151.3,255.5-151.3,255.1z M-155.3,253.6l0.7,1l1.1-1.3l1.5,1.8h-4.4L-155.3,253.6z
		 M-158.7,251.4v5.1c0,0.4,0.3,0.7,0.7,0.7h5.1v-0.7h-5.1v-5.1H-158.7L-158.7,251.4z"/>
</g>
</svg>
