<?xml version="1.0" encoding="utf-8"?>
<!-- Generator: Adobe Illustrator 19.0.0, SVG Export Plug-In . SVG Version: 6.00 Build 0)  -->
<svg version="1.1" id="Layer_1" xmlns="http://www.w3.org/2000/svg" xmlns:xlink="http://www.w3.org/1999/xlink" x="0px" y="0px"
	 viewBox="-167 241 24 24" style="enable-background:new -167 241 24 24;" xml:space="preserve">
<style type="text/css">
	.st0{fill:none;}
	.st1{fill:#FFFFFF;}
</style>
<path class="st0" d="M-167,241h24v24h-24V241z"/>
<g id="XMLID_1050_">
	<path id="XMLID_1037_" d="M-155,244.4c-4.8,0-8.6,3.8-8.6,8.6c0,4.8,3.8,8.6,8.6,8.6s8.6-3.9,8.6-8.6
		C-146.4,248.2-150.2,244.4-155,244.4z"/>
	<path id="XMLID_1039_" class="st1" d="M-153.5,252.6c0.3,0,0.6-0.3,0.6-0.6s-0.3-0.6-0.6-0.6c-0.3,0-0.6,0.3-0.6,0.6
		S-153.9,252.6-153.5,252.6z M-156.5,252.6c0.3,0,0.6-0.3,0.6-0.6s-0.3-0.6-0.6-0.6s-0.6,0.3-0.6,0.6S-156.9,252.6-156.5,252.6z
		 M-155,255.5c1.1,0,2.1-0.7,2.4-1.7h-4.8C-157.1,254.9-156.1,255.5-155,255.5z M-155,248.7c-2.3,0-4.2,1.9-4.2,4.3
		c0,2.3,1.9,4.3,4.2,4.3c2.3,0,4.3-1.9,4.3-4.3C-150.7,250.7-152.7,248.7-155,248.7z M-155,256.4c-1.9,0-3.4-1.5-3.4-3.4
		s1.5-3.4,3.4-3.4s3.4,1.5,3.4,3.4S-153.1,256.4-155,256.4z"/>
</g>
</svg>
