<?xml version="1.0" encoding="utf-8"?>
<!-- Generator: Adobe Illustrator 19.0.0, SVG Export Plug-In . SVG Version: 6.00 Build 0)  -->
<svg version="1.1" id="Layer_1" xmlns="http://www.w3.org/2000/svg" xmlns:xlink="http://www.w3.org/1999/xlink" x="0px" y="0px"
	 viewBox="-155 229 48 48" style="enable-background:new -155 229 48 48;" xml:space="preserve">
<style type="text/css">
	.st0{fill:none;}
	.st1{fill:#FFFFFF;}
</style>
<path class="st0" d="M-310,458h48v48h-48V458z"/>
<g id="XMLID_1050_">
	<path id="XMLID_1037_" d="M-131,235.7c-9.6,0-17.3,7.7-17.3,17.3c0,9.5,7.7,17.3,17.3,17.3s17.3-7.8,17.3-17.3
		C-113.7,243.4-121.4,235.7-131,235.7z"/>
	<path id="XMLID_1039_" class="st1" d="M-128.1,252.1c0.7,0,1.3-0.6,1.3-1.3c0-0.7-0.6-1.3-1.3-1.3c-0.7,0-1.3,0.6-1.3,1.3
		C-129.4,251.5-128.8,252.1-128.1,252.1z M-133.9,252.1c0.7,0,1.3-0.6,1.3-1.3c0-0.7-0.6-1.3-1.3-1.3c-0.7,0-1.3,0.6-1.3,1.3
		C-135.2,251.5-134.7,252.1-133.9,252.1z M-131,258.1c2.2,0,4.1-1.4,4.8-3.4h-9.6C-135.1,256.7-133.2,258.1-131,258.1z M-131,244.4
		c-4.7,0-8.5,3.8-8.5,8.6c0,4.7,3.8,8.6,8.5,8.6s8.6-3.8,8.6-8.6C-122.4,248.3-126.3,244.4-131,244.4z M-131,259.8
		c-3.8,0-6.8-3-6.8-6.8c0-3.8,3-6.8,6.8-6.8c3.8,0,6.8,3,6.8,6.8C-124.2,256.8-127.2,259.8-131,259.8z"/>
</g>
</svg>
