<?xml version="1.0" encoding="UTF-8" standalone="no"?>
<!-- Generator: Adobe Illustrator 19.0.0, SVG Export Plug-In . SVG Version: 6.00 Build 0)  -->

<svg
   xmlns:dc="http://purl.org/dc/elements/1.1/"
   xmlns:cc="http://creativecommons.org/ns#"
   xmlns:rdf="http://www.w3.org/1999/02/22-rdf-syntax-ns#"
   xmlns:svg="http://www.w3.org/2000/svg"
   xmlns="http://www.w3.org/2000/svg"
   xmlns:sodipodi="http://sodipodi.sourceforge.net/DTD/sodipodi-0.dtd"
   xmlns:inkscape="http://www.inkscape.org/namespaces/inkscape"
   version="1.1"
   id="Layer_1"
   x="0px"
   y="0px"
   viewBox="0 0 192 192"
   style="enable-background:new 0 0 192 192;"
   xml:space="preserve"
   inkscape:version="0.48.4 r9939"
   width="100%"
   height="100%"
   sodipodi:docname="Zom Larger Android Icon XXHDPI 192x192.svg v.2.svg"><metadata
     id="metadata21"><rdf:RDF><cc:Work
         rdf:about=""><dc:format>image/svg+xml</dc:format><dc:type
           rdf:resource="http://purl.org/dc/dcmitype/StillImage" /><dc:title></dc:title></cc:Work></rdf:RDF></metadata><defs
     id="defs19" /><sodipodi:namedview
     pagecolor="#ffffff"
     bordercolor="#666666"
     borderopacity="1"
     objecttolerance="10"
     gridtolerance="10"
     guidetolerance="10"
     inkscape:pageopacity="0"
     inkscape:pageshadow="2"
     inkscape:window-width="1069"
     inkscape:window-height="843"
     id="namedview17"
     showgrid="false"
     inkscape:zoom="1.2291667"
     inkscape:cx="96"
     inkscape:cy="96"
     inkscape:window-x="95"
     inkscape:window-y="108"
     inkscape:window-maximized="0"
     inkscape:current-layer="Layer_1" /><style
     type="text/css"
     id="style3">
	.st0{fill:#F7AABE;}
	.st1{fill:#ED94AB;}
	.st2{fill:#E6295B;}
	.st3{fill:#C0264F;}
	.st4{fill:#FFFFFF;}
</style><path
     style="fill:#f7aabe"
     inkscape:connector-curvature="0"
     d="M 136.2,189.4 H 19.8 c -10.8,0 -19.6,-8.6 -20,-19.1 v 1.9 c 0,10.9 9,19.7 20,19.7 h 116.3 l 0.1,-2.5 0,0 z"
     class="st0"
     id="XMLID_25_" /><path
     style="fill:#ed94ab"
     inkscape:connector-curvature="0"
     d="m 191.8,169.7 c 0,10.9 -9,19.7 -20,19.7 h -35.7 l -0.1,0 0.1,2.5 35.8,0 h 0.8 c 8.8,0 16.2,-6.2 18.4,-14.5 0.4,-1.7 0.7,-3.4 0.7,-5.2 v -2.5 z"
     class="st1"
     id="XMLID_24_" /><path
     style="fill:#e6295b"
     inkscape:connector-curvature="0"
     d="m 191.9,169.7 c 0,10.9 -9,19.7 -20,19.7 h -152 c -11,0 -20,-8.9 -20,-19.7 V 19.7 C -0.1,8.8 8.9,0 19.9,0 h 152 c 11,0 20,8.9 20,19.7 v 150 z"
     class="st2"
     id="XMLID_23_" /><path
     style="fill:#c0264f"
     inkscape:connector-curvature="0"
     d="M 191.9,169.6 V 103.2 L 145.8,59.8 c 6.4,7.6 10.2,16.6 10.2,26.4 0,11.8 -5.4,22.5 -14.4,30.8 h 0 l -0.1,0 c -4,3.7 -8.2,7.3 -13.5,10.6 l -36,23 43.9,38.8 h 35.9 c 11.1,-0.1 20.1,-8.9 20.1,-19.8"
     class="st3"
     id="XMLID_22_" /><g
     id="XMLID_4_"
     transform="matrix(1.1489044,0,0,1.2330698,-14.265039,-22.083365)"><path
       style="fill:#ffffff"
       inkscape:connector-curvature="0"
       d="m 141.4,117.2 0,0 0,0 c 9,-8.3 14.5,-19.1 14.5,-30.9 0,-9.8 -3.8,-18.9 -10.2,-26.4 -10.8,-12.7 -29.1,-21 -49.9,-21 -33.2,0 -60.1,21.2 -60.1,47.4 0,25.5 25.5,46.3 57.5,47.4 l -1.2,16.9 35.9,-22.8 c 5.3,-3.3 9.5,-6.9 13.5,-10.6"
       class="st4"
       id="XMLID_5_" /></g><path
     id="XMLID_14_"
     class="st2"
     d="M 93.993265,114.66879 H 124.0271 v 14.40579 H 66.330507 V 117.50272 L 95.57399,87.037997 H 67.384328 V 72.632203 H 123.23675 V 84.20407 l -29.243485,30.46472 z"
     inkscape:connector-curvature="0"
     style="fill:#e6295b" /><path
     style="fill:#e6295b"
     inkscape:connector-curvature="0"
     d="m 73.807683,45.21013 c 3.112673,-0.188218 6.225346,0.376434 8.948933,2.07039 1.75088,1.129303 3.501758,2.446824 5.058094,3.952562 1.556337,1.693956 3.112673,3.576128 4.279925,6.022953 1.167254,-2.823259 2.72359,-5.081866 4.474462,-6.775821 1.750886,-1.693955 3.696303,-2.82326 6.030803,-3.199694 3.6963,0 6.41989,-0.188218 8.36532,-0.376435 1.3618,-0.188217 2.72358,-0.564652 4.47446,-0.941086 1.75087,-0.564652 3.50176,-1.317521 5.25263,-2.446824 1.75089,-1.129305 3.11268,-1.882173 4.08538,-2.82326 0.97272,-0.752869 1.55636,-1.505739 1.75089,-2.07039 0.19455,-0.75287 0.77816,-1.129304 1.36179,-1.129304 0.97271,0.188217 1.36178,0.75287 0.97271,1.505739 h 0.19454 c -1.16725,2.258608 -2.52904,4.328997 -4.27993,6.399387 -1.75087,2.07039 -3.50175,4.140779 -5.6417,6.022953 -1.36181,1.693955 -3.30723,2.823258 -5.64173,3.764346 -2.33449,0.941085 -5.0581,1.31752 -8.17076,1.31752 h -2.33451 c -2.3345,0 -4.279929,0.376435 -5.641723,0.941085 -1.556326,0.75287 -2.529042,1.693957 -3.112668,3.011479 0.194542,0.376433 0.389084,0.941085 0.778167,1.505737 0.389084,0.564652 0.778175,1.31752 0.972707,2.07039 0.194546,0.941085 0.583624,1.882172 0.972716,2.635042 0.389078,0.752868 0.77817,1.505738 0.972702,2.07039 h -2.918125 c -1.556335,-2.446825 -3.307215,-4.517215 -5.058092,-6.399387 -1.750879,-1.882172 -3.6963,-3.387912 -5.641721,-4.705432 -0.972711,-0.752869 -2.139963,-1.317522 -3.501757,-1.882174 -1.556337,-0.56465 -3.112673,-1.129303 -4.863552,-1.505738 -1.556336,-0.376434 -2.91813,-0.564651 -4.474467,-0.752869 -1.556338,-0.188217 -2.918132,-0.188217 -3.890842,-0.188217 h -2.139962 c 1.167253,-5.081867 4.085383,-7.716908 8.36531,-8.093342"
     class="st2"
     id="XMLID_19_" /></svg>