<?xml version="1.0" encoding="utf-8"?>
<!-- Generator: Adobe Illustrator 19.0.0, SVG Export Plug-In . SVG Version: 6.00 Build 0)  -->
<svg version="1.1" id="Layer_1" xmlns="http://www.w3.org/2000/svg" xmlns:xlink="http://www.w3.org/1999/xlink" x="0px" y="0px"
	 viewBox="0 0 192 192" style="enable-background:new 0 0 192 192;" xml:space="preserve">
<style type="text/css">
	.st0{fill:#F7AABE;}
	.st1{fill:#ED94AB;}
	.st2{fill:#E6295B;}
	.st3{fill:#C0264F;}
	.st4{fill:#FFFFFF;}
</style>
<g id="XMLID_1_">
	<path id="XMLID_25_" class="st0" d="M136.2,189.4H19.8c-10.8,0-19.6-8.6-20-19.1v1.9c0,10.9,9,19.7,20,19.7h116.3L136.2,189.4
		L136.2,189.4z"/>
	<path id="XMLID_24_" class="st1" d="M191.8,169.7c0,10.9-9,19.7-20,19.7h-35.7l-0.1,0l0.1,2.5l35.8,0h0.8c8.8,0,16.2-6.2,18.4-14.5
		c0.4-1.7,0.7-3.4,0.7-5.2V169.7z"/>
	<path id="XMLID_23_" class="st2" d="M191.9,169.7c0,10.9-9,19.7-20,19.7h-152c-11,0-20-8.9-20-19.7v-150c0-10.9,9-19.7,20-19.7h152
		c11,0,20,8.9,20,19.7V169.7z"/>
	<path id="XMLID_22_" class="st3" d="M191.9,169.6v-66.4l-46.1-43.4c6.4,7.6,10.2,16.6,10.2,26.4c0,11.8-5.4,22.5-14.4,30.8h0
		l-0.1,0c-4,3.7-8.2,7.3-13.5,10.6L92,150.6l43.9,38.8h35.9C182.9,189.3,191.9,180.5,191.9,169.6"/>
	<g id="XMLID_4_">
		<path id="XMLID_5_" class="st4" d="M141.4,117.2L141.4,117.2L141.4,117.2c9-8.3,14.5-19.1,14.5-30.9c0-9.8-3.8-18.9-10.2-26.4
			c-10.8-12.7-29.1-21-49.9-21c-33.2,0-60.1,21.2-60.1,47.4c0,25.5,25.5,46.3,57.5,47.4L92,150.6l35.9-22.8
			C133.2,124.5,137.4,120.9,141.4,117.2"/>
	</g>
	<g id="XMLID_12_">
		<path id="XMLID_14_" class="st2" d="M67,94.5h11.4v6.1H56.5v-4.9l11.1-12.9H56.9v-6.1h21.2v4.9L67,94.5z"/>
		<path id="XMLID_28_" class="st2" d="M100.6,91.2c0,5.8-4.1,9.6-10.5,9.6S79.6,97,79.6,91.2s4.1-9.6,10.5-9.6
			S100.6,85.4,100.6,91.2z M87.3,91.3c0,2.2,1.1,3.6,2.8,3.6c1.7,0,2.8-1.4,2.8-3.6s-1.1-3.6-2.8-3.6C88.4,87.7,87.3,89.1,87.3,91.3
			z"/>
		<path id="XMLID_31_" class="st2" d="M134.8,88.6v11.9h-7.6v-9.7c0-1.6-0.8-2.5-2.1-2.5c-1.4,0-2.3,1.2-2.3,3v9.2h-7.6v-9.7
			c0-1.6-0.8-2.5-2.1-2.5c-1.4,0-2.3,1.2-2.3,3v9.2H103V81.9h7.6v2.6c1.3-1.9,3.1-3,5.5-3c2.8,0,5,1.5,6,4c1.2-2.5,3.3-4,6.1-4
			C132.1,81.6,134.8,84.4,134.8,88.6z"/>
	</g>
	<path id="XMLID_19_" class="st2" d="M87.2,66c1.6-0.1,3.2,0.2,4.6,1.1c0.9,0.6,1.8,1.3,2.6,2.1c0.8,0.9,1.6,1.9,2.2,3.2
		c0.6-1.5,1.4-2.7,2.3-3.6c0.9-0.9,1.9-1.5,3.1-1.7c1.9,0,3.3-0.1,4.3-0.2c0.7-0.1,1.4-0.3,2.3-0.5c0.9-0.3,1.8-0.7,2.7-1.3
		c0.9-0.6,1.6-1,2.1-1.5c0.5-0.4,0.8-0.8,0.9-1.1c0.1-0.4,0.4-0.6,0.7-0.6c0.5,0.1,0.7,0.4,0.5,0.8h0.1c-0.6,1.2-1.3,2.3-2.2,3.4
		c-0.9,1.1-1.8,2.2-2.9,3.2c-0.7,0.9-1.7,1.5-2.9,2c-1.2,0.5-2.6,0.7-4.2,0.7h-1.2c-1.2,0-2.2,0.2-2.9,0.5c-0.8,0.4-1.3,0.9-1.6,1.6
		c0.1,0.2,0.2,0.5,0.4,0.8c0.2,0.3,0.4,0.7,0.5,1.1c0.1,0.5,0.3,1,0.5,1.4c0.2,0.4,0.4,0.8,0.5,1.1h-1.5c-0.8-1.3-1.7-2.4-2.6-3.4
		c-0.9-1-1.9-1.8-2.9-2.5c-0.5-0.4-1.1-0.7-1.8-1c-0.8-0.3-1.6-0.6-2.5-0.8c-0.8-0.2-1.5-0.3-2.3-0.4c-0.8-0.1-1.5-0.1-2-0.1h-1.1
		C83.5,67.6,85,66.2,87.2,66"/>
</g>
</svg>
