<?xml version="1.0" encoding="utf-8"?>
<!-- Generator: Adobe Illustrator 18.1.1, SVG Export Plug-In . SVG Version: 6.00 Build 0)  -->
<svg version="1.1" id="Layer_1" xmlns="http://www.w3.org/2000/svg" xmlns:xlink="http://www.w3.org/1999/xlink" x="0px" y="0px"
	 viewBox="941.5 980.9 500 166.6" enable-background="new 941.5 980.9 500 166.6" xml:space="preserve">
<g id="Layer_1_1_" xmlns:sketch="http://www.bohemiancoding.com/sketch/ns">
</g>
<g id="Layer_2">
	<rect x="941.9" y="1047.3" fill="#E7275A" width="100" height="100"/>
	<polygon fill="#BF204B" points="1041.9,1147.3 941.9,1147.3 1041.9,1047.3 	"/>
	<rect x="1041.9" y="1047.3" fill="#BF204B" width="100" height="100"/>
	<polygon fill="#BF204B" points="1141.9,1147.3 1041.9,1147.3 1141.9,1047.3 	"/>
	<rect x="1141.9" y="1047.3" fill="#C55264" width="100" height="100"/>
	<polygon fill="#984852" points="1141.9,1147.3 1141.9,1047.3 1241.9,1147.3 	"/>
	<rect x="1241.9" y="1047.3" fill="#984852" width="100" height="100"/>
	<polygon fill="#C55264" points="1341.9,1147.3 1241.9,1147.3 1341.9,1047.3 	"/>
	<rect x="1341.9" y="1047.3" fill="#E7275A" width="100" height="100"/>
	<polygon fill="#BF204B" points="1441.9,1147.3 1341.9,1147.3 1441.9,1047.3 	"/>
	<rect x="941.9" y="980.7" fill="#E7275A" width="100" height="66.7"/>
	<polygon fill="#984852" points="941.9,1047.3 941.9,980.7 975.2,980.7 1041.9,1047.3 	"/>
	<polyline fill="#9B6163" points="1141.9,980.7 1141.9,1047.3 1041.9,1047.3 1041.9,980.7 	"/>
	<polyline fill="#E7275A" points="1141.9,980.7 1141.9,1047.3 1041.9,1047.3 1108.6,980.7 	"/>
	<polyline fill="#E7275A" points="1241.9,980.7 1241.9,1047.3 1141.9,1047.3 1141.9,980.7 	"/>
	<polyline fill="#BF204B" points="1175.2,980.7 1241.9,1047.3 1141.9,1047.3 1141.9,980.7 	"/>
	<polyline fill="#E7275A" points="1341.9,980.7 1341.9,1047.3 1241.9,1047.3 1241.9,980.7 	"/>
	<polyline fill="#9B6163" points="1341.9,980.7 1341.9,1047.3 1241.9,1047.3 1308.6,980.7 	"/>
	<polyline fill="#984852" points="1441.9,980.7 1441.9,1047.3 1341.9,1047.3 1341.9,980.7 	"/>
	<polyline fill="#E7275A" points="1375.2,980.7 1441.9,1047.3 1341.9,1047.3 1341.9,980.7 	"/>
</g>
</svg>
