<?xml version="1.0" encoding="utf-8"?>
<!-- Generator: Adobe Illustrator 19.0.0, SVG Export Plug-In . SVG Version: 6.00 Build 0)  -->
<svg version="1.1" id="Layer_1" xmlns="http://www.w3.org/2000/svg" xmlns:xlink="http://www.w3.org/1999/xlink" x="0px" y="0px"
	 viewBox="0 0 192 192" style="enable-background:new 0 0 192 192;" xml:space="preserve">
<style type="text/css">
	.st0{fill:#E6295B;}
	.st1{fill:#FFFFFF;}
	.st2{fill:#C0264F;}
</style>
<path id="XMLID_17_" class="st0" d="M192,172c0,11-9,20-20,20H20c-11,0-20-9-20-20V20C0,9,9,0,20,0h152c11,0,20,9,20,20V172z"/>
<path id="XMLID_19_" class="st1" d="M151.6,128.7L151.6,128.7L151.6,128.7c11-10.3,17.7-23.6,17.7-38.2c0-12.1-4.6-23.3-12.4-32.7
	c-13.2-15.7-35.5-26-60.9-26c-40.5,0-73.3,26.3-73.3,58.7c0,31.5,31.1,57.3,70.1,58.6L91.3,170l43.8-28.2
	C141.6,137.7,146.7,133.3,151.6,128.7"/>
<path id="XMLID_3_" class="st0" d="M63.5,79.1c4.7-0.4,9.2,0.7,13.4,3.3c2.6,1.7,5.1,3.7,7.5,6.2c2.4,2.5,4.5,5.7,6.5,9.6
	c1.8-4.4,4.1-7.9,6.6-10.5c2.6-2.7,5.6-4.3,9.1-4.9c5.5,0,9.8-0.2,12.6-0.6c1.9-0.2,4.2-0.7,6.7-1.6c2.5-0.9,5.2-2.2,7.9-3.9
	c2.7-1.7,4.7-3.1,6.1-4.4c1.4-1.3,2.2-2.3,2.6-3.2c0.4-1.2,1.1-1.9,2-1.9c1.5,0.3,1.9,1.1,1.5,2.5h0.3c-1.7,3.5-3.9,6.9-6.4,10.1
	c-2.5,3.3-5.3,6.4-8.4,9.4c-2.1,2.5-4.9,4.5-8.4,5.9c-3.4,1.4-7.5,2-12.1,1.9h-3.6c-3.5,0-6.4,0.5-8.6,1.6c-2.2,1.1-3.8,2.6-4.8,4.7
	c0.2,0.6,0.6,1.3,1.1,2.3c0.5,0.9,1,2,1.5,3.1c0.4,1.6,0.9,3,1.5,4.2c0.6,1.3,1,2.3,1.3,3.2h-4.5c-2.3-3.8-4.8-7.1-7.5-10.1
	c-2.7-3-5.6-5.4-8.6-7.3c-1.4-1.1-3.1-2-5.4-2.9c-2.2-0.9-4.7-1.7-7.3-2.3c-2.2-0.5-4.5-0.9-6.8-1.2c-2.3-0.3-4.3-0.4-5.8-0.4H50
	C52.6,83.9,57.1,79.6,63.5,79.1"/>
<path id="XMLID_11_" class="st2" d="M192,172V92.9l-36-36c0.3,0.3,0.6,0.7,0.9,1c7.8,9.3,12.4,20.6,12.4,32.7
	c0,14.6-6.6,27.9-17.6,38.1h0l-0.1,0.1c-4.9,4.6-10,9-16.5,13.1L91.3,170l0,0l22,22H172C183,192,192,183,192,172z"/>
</svg>
