<?xml version="1.0" encoding="utf-8"?>
<!-- Generator: Adobe Illustrator 19.0.0, SVG Export Plug-In . SVG Version: 6.00 Build 0)  -->
<svg version="1.1" id="Layer_1" xmlns="http://www.w3.org/2000/svg" xmlns:xlink="http://www.w3.org/1999/xlink" x="0px" y="0px"
	 viewBox="0 0 192 192" style="enable-background:new 0 0 192 192;" xml:space="preserve">
<style type="text/css">
	.st0{fill:#E6295B;}
	.st1{fill:#FFFFFF;}
	.st2{fill:#C0264F;}
</style>
<path id="XMLID_17_" class="st0" d="M192,172c0,11-9,20-20,20H20c-11,0-20-9-20-20V20C0,9,9,0,20,0h152c11,0,20,9,20,20V172z"/>
<path id="XMLID_19_" class="st1" d="M151.6,128.7L151.6,128.7L151.6,128.7c11-10.3,17.7-23.6,17.7-38.2c0-12.1-4.6-23.3-12.4-32.7
	c-13.2-15.7-35.5-26-60.9-26c-40.5,0-73.3,26.3-73.3,58.7c0,31.5,31.1,57.3,70.1,58.6L91.3,170l43.8-28.2
	C141.6,137.7,146.7,133.3,151.6,128.7"/>
<path id="XMLID_11_" class="st2" d="M192,172V92.9l-36-36c0.3,0.3,0.6,0.7,0.9,1c7.8,9.3,12.4,20.6,12.4,32.7
	c0,14.6-6.6,27.9-17.6,38.1h0l-0.1,0.1c-4.9,4.6-10,9-16.5,13.1L91.3,170l0,0l22,22H172C183,192,192,183,192,172z"/>
<g id="XMLID_2_">
	<path id="XMLID_3_" class="st0" d="M93.5,104.7H118v11.7H74v-9.4l23.8-27.4H74.9V67.9h42.4v9.4L93.5,104.7z"/>
</g>
</svg>
