<?xml version="1.0" encoding="utf-8"?>
<!-- Generator: Adobe Illustrator 19.0.0, SVG Export Plug-In . SVG Version: 6.00 Build 0)  -->
<svg version="1.1" id="Layer_1" xmlns="http://www.w3.org/2000/svg" xmlns:xlink="http://www.w3.org/1999/xlink" x="0px" y="0px"
	 viewBox="0 0 192 192" style="enable-background:new 0 0 192 192;" xml:space="preserve">
<style type="text/css">
	.st0{fill:#E6295B;}
	.st1{fill:#FFFFFF;}
	.st2{fill:#C0264F;}
</style>
<path id="XMLID_17_" class="st0" d="M192,172c0,11-9,20-20,20H20c-11,0-20-9-20-20V20C0,9,9,0,20,0h152c11,0,20,9,20,20V172z"/>
<path id="XMLID_19_" class="st1" d="M151.6,128.7L151.6,128.7L151.6,128.7c11-10.3,17.7-23.6,17.7-38.2c0-12.1-4.6-23.3-12.4-32.7
	c-13.2-15.7-35.5-26-60.9-26c-40.5,0-73.3,26.3-73.3,58.7c0,31.5,31.1,57.3,70.1,58.6L91.3,170l43.8-28.2
	C141.6,137.7,146.7,133.3,151.6,128.7"/>
<path id="XMLID_11_" class="st2" d="M192,172V92.9l-36-36c0.3,0.3,0.6,0.7,0.9,1c7.8,9.3,12.4,20.6,12.4,32.7
	c0,14.6-6.6,27.9-17.6,38.1h0l-0.1,0.1c-4.9,4.6-10,9-16.5,13.1L91.3,170l0,0l22,22H172C183,192,192,183,192,172z"/>
<g id="XMLID_2_">
	<path id="XMLID_3_" class="st0" d="M93.9,109.8h20.8v9.9H77.3v-7.9l20.2-23.3H78.1v-9.9H114v7.9L93.9,109.8z"/>
</g>
<path id="XMLID_14_" class="st0" d="M79.7,57.6c2.2-0.2,4.3,0.3,6.3,1.6c1.2,0.8,2.4,1.7,3.5,2.9c1.1,1.2,2.1,2.7,3,4.5
	c0.9-2,1.9-3.7,3.1-4.9c1.2-1.2,2.6-2,4.3-2.3c2.6,0,4.6-0.1,6-0.3c0.9-0.1,2-0.3,3.2-0.7c1.2-0.4,2.4-1,3.7-1.8
	c1.3-0.8,2.2-1.4,2.9-2c0.6-0.6,1.1-1.1,1.2-1.5c0.2-0.6,0.5-0.9,1-0.9c0.7,0.1,0.9,0.5,0.7,1.1h0.1c-0.8,1.6-1.8,3.2-3,4.7
	c-1.2,1.5-2.5,3-4,4.4c-1,1.2-2.3,2.1-3.9,2.7c-1.6,0.6-3.5,0.9-5.7,0.9h-1.7c-1.7,0-3,0.3-4,0.7c-1.1,0.5-1.8,1.2-2.3,2.2
	c0.1,0.3,0.3,0.6,0.5,1c0.2,0.4,0.5,0.9,0.7,1.5c0.2,0.7,0.4,1.4,0.7,2c0.3,0.6,0.5,1.1,0.6,1.5h-2.1c-1.1-1.8-2.3-3.3-3.6-4.7
	c-1.3-1.4-2.6-2.5-4-3.4c-0.6-0.5-1.5-0.9-2.5-1.3c-1.1-0.4-2.2-0.8-3.4-1.1c-1-0.2-2.1-0.4-3.2-0.5c-1.1-0.1-2-0.2-2.7-0.2h-1.6
	C74.5,59.8,76.7,57.8,79.7,57.6z"/>
</svg>
